<?xml version="1.0" encoding="UTF-8"?>
<svg width="800" height="600" xmlns="http://www.w3.org/2000/svg">
  <defs>
    <style>
      .title { font-family: Arial, sans-serif; font-size: 24px; font-weight: bold; }
      .subtitle { font-family: Arial, sans-serif; font-size: 16px; font-weight: bold; }
      .text { font-family: Arial, sans-serif; font-size: 12px; }
      .small { font-family: Arial, sans-serif; font-size: 10px; }
      .box { fill: #f8f9fa; stroke: #333; stroke-width: 2; }
      .api-box { fill: #e3f2fd; stroke: #1976d2; stroke-width: 2; }
      .core-box { fill: #f3e5f5; stroke: #7b1fa2; stroke-width: 2; }
      .rule-box { fill: #e8f5e8; stroke: #2e7d32; stroke-width: 2; }
      .ui-box { fill: #fff3e0; stroke: #f57c00; stroke-width: 2; }
    </style>
  </defs>
  
  <!-- Title -->
  <text x="400" y="30" text-anchor="middle" class="title">OntoSeed System Architecture</text>
  
  <!-- UI Layer -->
  <rect x="50" y="60" width="700" height="80" class="ui-box" rx="8"/>
  <text x="400" y="80" text-anchor="middle" class="subtitle">User Interface Layer</text>
  
  <!-- SHACL Playground -->
  <rect x="80" y="90" width="180" height="40" class="box" rx="4"/>
  <text x="170" y="105" text-anchor="middle" class="text">SHACL Playground</text>
  <text x="170" y="120" text-anchor="middle" class="small">Validation • Real-time</text>
  
  <!-- SemCom Playground -->
  <rect x="310" y="90" width="180" height="40" class="box" rx="4"/>
  <text x="400" y="105" text-anchor="middle" class="text">SemCom Playground</text>
  <text x="400" y="120" text-anchor="middle" class="small">Encoding • Compression</text>
  
  <!-- Provenance Ledger -->
  <rect x="540" y="90" width="180" height="40" class="box" rx="4"/>
  <text x="630" y="105" text-anchor="middle" class="text">Provenance Ledger</text>
  <text x="630" y="120" text-anchor="middle" class="small">ZKP Proofs • SQLite</text>
  
  <!-- API Layer -->
  <rect x="50" y="160" width="700" height="80" class="api-box" rx="8"/>
  <text x="400" y="180" text-anchor="middle" class="subtitle">API Layer</text>
  
  <rect x="150" y="190" width="120" height="30" class="box" rx="4"/>
  <text x="210" y="210" text-anchor="middle" class="text">/api/validate</text>
  
  <rect x="340" y="190" width="120" height="30" class="box" rx="4"/>
  <text x="400" y="210" text-anchor="middle" class="text">/api/semcom</text>
  
  <rect x="530" y="190" width="120" height="30" class="box" rx="4"/>
  <text x="590" y="210" text-anchor="middle" class="text">/api/prov</text>
  
  <!-- Core Engine -->
  <rect x="50" y="260" width="700" height="100" class="core-box" rx="8"/>
  <text x="400" y="280" text-anchor="middle" class="subtitle">Core Engine</text>
  
  <rect x="80" y="290" width="180" height="60" class="box" rx="4"/>
  <text x="170" y="310" text-anchor="middle" class="text">Ontology Manager</text>
  <text x="170" y="325" text-anchor="middle" class="small">Core TTL • Shapes</text>
  <text x="170" y="340" text-anchor="middle" class="small">Concepts • N3.js</text>
  
  <rect x="310" y="290" width="180" height="60" class="box" rx="4"/>
  <text x="400" y="310" text-anchor="middle" class="text">Validation Engine</text>
  <text x="400" y="325" text-anchor="middle" class="small">pyshacl • SHACL</text>
  <text x="400" y="340" text-anchor="middle" class="small">RDF Processing</text>
  
  <rect x="540" y="290" width="180" height="60" class="box" rx="4"/>
  <text x="630" y="310" text-anchor="middle" class="text">ZKP Engine</text>
  <text x="630" y="325" text-anchor="middle" class="small">Circom • Groth16</text>
  <text x="630" y="340" text-anchor="middle" class="small">snarkjs • Proofs</text>
  
  <!-- Four Universal Rules -->
  <rect x="50" y="380" width="700" height="140" class="rule-box" rx="8"/>
  <text x="400" y="400" text-anchor="middle" class="subtitle">Four Universal Rules</text>
  
  <rect x="80" y="410" width="140" height="50" class="box" rx="4"/>
  <text x="150" y="430" text-anchor="middle" class="text">Identity</text>
  <text x="150" y="445" text-anchor="middle" class="small">Unique ID • Self-ref</text>
  
  <rect x="250" y="410" width="140" height="50" class="box" rx="4"/>
  <text x="320" y="430" text-anchor="middle" class="text">Containment</text>
  <text x="320" y="445" text-anchor="middle" class="small">Hierarchy • Relations</text>
  
  <rect x="420" y="410" width="140" height="50" class="box" rx="4"/>
  <text x="490" y="430" text-anchor="middle" class="text">Cause</text>
  <text x="490" y="445" text-anchor="middle" class="small">Causality • Provenance</text>
  
  <rect x="590" y="410" width="130" height="50" class="box" rx="4"/>
  <text x="655" y="430" text-anchor="middle" class="text">Reflection</text>
  <text x="655" y="445" text-anchor="middle" class="small">Meta-modeling</text>
  
  <!-- Reflection details -->
  <rect x="150" y="480" width="500" height="30" class="box" rx="4"/>
  <text x="400" y="500" text-anchor="middle" class="text">Self-awareness • Introspection • Recursive structures</text>
  
  <!-- Technology Stack -->
  <text x="50" y="545" class="subtitle">Technology Stack:</text>
  <text x="50" y="565" class="text">Next.js 15 + TypeScript + Tailwind CSS • Node.js • RDF/OWL + SHACL</text>
  <text x="50" y="580" class="text">pyshacl + N3.js • Circom + Groth16 + snarkjs • SQLite • Docker + Fly.io</text>
  
  <!-- Arrows -->
  <defs>
    <marker id="arrowhead" markerWidth="10" markerHeight="7" refX="9" refY="3.5" orient="auto">
      <polygon points="0 0, 10 3.5, 0 7" fill="#333"/>
    </marker>
  </defs>
  
  <!-- UI to API arrows -->
  <line x1="170" y1="130" x2="210" y2="190" stroke="#333" stroke-width="2" marker-end="url(#arrowhead)"/>
  <line x1="400" y1="130" x2="400" y2="190" stroke="#333" stroke-width="2" marker-end="url(#arrowhead)"/>
  <line x1="630" y1="130" x2="590" y2="190" stroke="#333" stroke-width="2" marker-end="url(#arrowhead)"/>
  
  <!-- API to Core arrows -->
  <line x1="210" y1="220" x2="170" y2="290" stroke="#333" stroke-width="2" marker-end="url(#arrowhead)"/>
  <line x1="400" y1="220" x2="400" y2="290" stroke="#333" stroke-width="2" marker-end="url(#arrowhead)"/>
  <line x1="590" y1="220" x2="630" y2="290" stroke="#333" stroke-width="2" marker-end="url(#arrowhead)"/>
  
  <!-- Core to Rules arrows -->
  <line x1="170" y1="350" x2="150" y2="410" stroke="#333" stroke-width="2" marker-end="url(#arrowhead)"/>
  <line x1="400" y1="350" x2="400" y2="410" stroke="#333" stroke-width="2" marker-end="url(#arrowhead)"/>
  <line x1="630" y1="350" x2="655" y2="410" stroke="#333" stroke-width="2" marker-end="url(#arrowhead)"/>
</svg>